<?xml version="1.0" encoding="UTF-8" standalone="no"?>
<!-- Created with Inkscape (http://www.inkscape.org/) -->

<svg
   xmlns:dc="http://purl.org/dc/elements/1.1/"
   xmlns:cc="http://creativecommons.org/ns#"
   xmlns:rdf="http://www.w3.org/1999/02/22-rdf-syntax-ns#"
   xmlns:svg="http://www.w3.org/2000/svg"
   xmlns="http://www.w3.org/2000/svg"
   xmlns:sodipodi="http://sodipodi.sourceforge.net/DTD/sodipodi-0.dtd"
   xmlns:inkscape="http://www.inkscape.org/namespaces/inkscape"
   width="183.47134"
   height="230.35532"
   viewBox="0 0 183.47134 230.35532"
   id="svg2"
   version="1.1"
   inkscape:version="0.91 r13725"
   sodipodi:docname="fork_icon.svg"
   inkscape:export-filename="/Users/3556875/Documents/AGD/images/fork_icon.png"
   inkscape:export-xdpi="7.8140154"
   inkscape:export-ydpi="7.8140154">
  <defs
     id="defs4" />
  <sodipodi:namedview
     id="base"
     pagecolor="#ffffff"
     bordercolor="#666666"
     borderopacity="1.0"
     inkscape:pageopacity="0.0"
     inkscape:pageshadow="2"
     inkscape:zoom="1"
     inkscape:cx="-114.47645"
     inkscape:cy="117.07014"
     inkscape:document-units="px"
     inkscape:current-layer="layer1"
     showgrid="false"
     inkscape:object-paths="false"
     inkscape:snap-others="false"
     inkscape:object-nodes="true"
     inkscape:snap-midpoints="false"
     inkscape:snap-smooth-nodes="true"
     inkscape:snap-nodes="true"
     inkscape:snap-bbox="false"
     inkscape:bbox-paths="false"
     inkscape:bbox-nodes="false"
     fit-margin-top="0"
     fit-margin-left="0"
     fit-margin-right="0"
     fit-margin-bottom="0"
     units="px"
     inkscape:window-width="1920"
     inkscape:window-height="955"
     inkscape:window-x="0"
     inkscape:window-y="0"
     inkscape:window-maximized="1" />
  <metadata
     id="metadata7">
    <rdf:RDF>
      <cc:Work
         rdf:about="">
        <dc:format>image/svg+xml</dc:format>
        <dc:type
           rdf:resource="http://purl.org/dc/dcmitype/StillImage" />
        <dc:title />
      </cc:Work>
    </rdf:RDF>
  </metadata>
  <g
     inkscape:label="Laag 1"
     inkscape:groupmode="layer"
     id="layer1"
     transform="translate(-264.97645,-376.3928)">
    <path
       d="m 598.75,64.862183 a 68.75,68.75 0 0 1 -34.375,59.539247 68.75,68.75 0 0 1 -68.75,0 68.75,68.75 0 0 1 -34.375,-59.539251"
       sodipodi:open="true"
       sodipodi:end="3.1415927"
       sodipodi:start="0"
       sodipodi:ry="68.75"
       sodipodi:rx="68.75"
       sodipodi:cy="64.862183"
       sodipodi:cx="530"
       sodipodi:type="arc"
       id="path4159"
       style="fill:none;fill-opacity:1;stroke:#000000;stroke-width:32;stroke-linecap:round;stroke-miterlimit:4;stroke-dasharray:none;stroke-dashoffset:0;stroke-opacity:1" />
    <path
       style="fill:none;fill-rule:evenodd;stroke:#000000;stroke-width:1px;stroke-linecap:butt;stroke-linejoin:miter;stroke-opacity:1"
       d="m 76,19.8622 0,137.5"
       id="path3336"
       inkscape:connector-curvature="0"
       sodipodi:nodetypes="cc" />
    <path
       style="fill:none;fill-rule:evenodd;stroke:#000000;stroke-width:1px;stroke-linecap:butt;stroke-linejoin:miter;stroke-opacity:1"
       d="m 16,19.8622 60,61.5 60,-61.5"
       id="path3338"
       inkscape:connector-curvature="0"
       sodipodi:nodetypes="ccc" />
    <path
       sodipodi:nodetypes="cc"
       inkscape:connector-curvature="0"
       id="path3342"
       d="m 270,31.8622 0,137.5"
       style="fill:none;fill-rule:evenodd;stroke:#000000;stroke-width:35;stroke-linecap:round;stroke-linejoin:miter;stroke-miterlimit:4;stroke-dasharray:none;stroke-opacity:1" />
    <path
       style="fill:none;fill-opacity:1;stroke:#000000;stroke-width:35;stroke-linecap:round;stroke-miterlimit:4;stroke-dasharray:none;stroke-dashoffset:0;stroke-opacity:1"
       id="path3346"
       sodipodi:type="arc"
       sodipodi:cx="270"
       sodipodi:cy="31.862198"
       sodipodi:rx="68.75"
       sodipodi:ry="68.75"
       sodipodi:start="0"
       sodipodi:end="3.1415927"
       sodipodi:open="true"
       d="m 338.75,31.862198 a 68.75,68.75 0 0 1 -34.375,59.539247 68.75,68.75 0 0 1 -68.75,-2e-6 68.75,68.75 0 0 1 -34.375,-59.539248" />
    <path
       style="fill:none;fill-rule:evenodd;stroke:#000000;stroke-width:32;stroke-linecap:round;stroke-linejoin:miter;stroke-miterlimit:4;stroke-dasharray:none;stroke-opacity:1"
       d="m 530,34.20312 0,195.97724"
       id="path4148"
       inkscape:connector-curvature="0"
       sodipodi:nodetypes="cc" />
    <path
       style="fill:none;fill-rule:evenodd;stroke:#000000;stroke-width:32;stroke-linecap:round;stroke-linejoin:miter;stroke-miterlimit:4;stroke-dasharray:none;stroke-opacity:1"
       d="m 461.25,64.86218 0,-30.65906"
       id="path4155"
       inkscape:connector-curvature="0"
       sodipodi:nodetypes="cc" />
    <path
       sodipodi:nodetypes="cc"
       inkscape:connector-curvature="0"
       id="path4157"
       d="m 598.75,64.86218 0,-30.65906"
       style="fill:none;fill-rule:evenodd;stroke:#000000;stroke-width:32;stroke-linecap:round;stroke-linejoin:miter;stroke-miterlimit:4;stroke-dasharray:none;stroke-opacity:1" />
    <path
       style="fill:none;fill-opacity:1;stroke:#000000;stroke-width:31.99999809;stroke-linecap:round;stroke-miterlimit:4;stroke-dasharray:none;stroke-dashoffset:0;stroke-opacity:1"
       id="path4161"
       sodipodi:type="arc"
       sodipodi:cx="760"
       sodipodi:cy="64.841492"
       sodipodi:rx="63.998402"
       sodipodi:ry="63.770691"
       sodipodi:start="0"
       sodipodi:end="3.1415927"
       sodipodi:open="true"
       d="m 823.9984,64.841492 a 63.998402,63.770691 0 0 1 -31.9992,55.227038 63.998402,63.770691 0 0 1 -63.9984,0 63.998402,63.770691 0 0 1 -31.9992,-55.227041" />
    <path
       sodipodi:nodetypes="cc"
       inkscape:connector-curvature="0"
       id="path4163"
       d="m 760,33.75244 0,191.63524"
       style="fill:none;fill-rule:evenodd;stroke:#000000;stroke-width:32;stroke-linecap:round;stroke-linejoin:miter;stroke-miterlimit:4;stroke-dasharray:none;stroke-opacity:1" />
    <path
       sodipodi:nodetypes="cc"
       inkscape:connector-curvature="0"
       id="path4165"
       d="m 696.0016,64.84149 0,-31.08905"
       style="fill:none;fill-rule:evenodd;stroke:#000000;stroke-width:31.99999809;stroke-linecap:round;stroke-linejoin:miter;stroke-miterlimit:4;stroke-dasharray:none;stroke-opacity:1" />
    <path
       style="fill:none;fill-rule:evenodd;stroke:#000000;stroke-width:31.99999809;stroke-linecap:round;stroke-linejoin:miter;stroke-miterlimit:4;stroke-dasharray:none;stroke-opacity:1"
       d="m 823.9984,64.841492 0,-31.08905"
       id="path4169"
       inkscape:connector-curvature="0"
       sodipodi:nodetypes="cc" />
    <path
       style="color:#000000;font-style:normal;font-variant:normal;font-weight:normal;font-stretch:normal;font-size:medium;line-height:normal;font-family:sans-serif;text-indent:0;text-align:start;text-decoration:none;text-decoration-line:none;text-decoration-style:solid;text-decoration-color:#000000;letter-spacing:normal;word-spacing:normal;text-transform:none;direction:ltr;block-progression:tb;writing-mode:lr-tb;baseline-shift:baseline;text-anchor:start;white-space:normal;clip-rule:nonzero;display:inline;overflow:visible;visibility:visible;opacity:1;isolation:auto;mix-blend-mode:normal;color-interpolation:sRGB;color-interpolation-filters:linearRGB;solid-color:#000000;solid-opacity:1;fill:#000000;fill-opacity:1;fill-rule:nonzero;stroke:none;stroke-width:31.99999809;stroke-linecap:round;stroke-linejoin:miter;stroke-miterlimit:4;stroke-dasharray:none;stroke-dashoffset:0;stroke-opacity:1;color-rendering:auto;image-rendering:auto;shape-rendering:auto;text-rendering:auto;enable-background:accumulate"
       d="M 56.757812 0 A 16.001599 16.001599 0 0 0 42.652344 8.1972656 L 27.107422 35.121094 C 12.860422 59.797614 12.9184 90.289733 27.21875 114.9707 C 31.592092 122.51865 37.103359 129.17981 43.457031 134.79883 L 2.2578125 206.1582 A 16.0016 16.0016 0 1 0 29.970703 222.1582 L 71.169922 150.79883 C 79.213363 153.49205 87.739021 154.93576 96.462891 154.94922 C 124.98741 154.99322 151.42097 139.79567 165.66797 115.11914 L 181.21289 88.195312 A 16.001599 16.001599 0 0 0 167.60547 64 A 16.001599 16.001599 0 0 0 153.5 72.195312 L 137.95508 99.119141 C 129.419 113.90407 113.67537 122.97568 96.511719 122.94922 C 93.532602 122.94462 90.594828 122.65913 87.726562 122.12305 L 125.78906 56.197266 A 16.0016 16.0016 0 0 0 112.18164 32 A 16.0016 16.0016 0 0 0 98.076172 40.197266 L 60.013672 106.12305 C 58.11555 103.90732 56.399608 101.50707 54.90625 98.929688 C 46.30151 84.078757 46.284212 65.906024 54.820312 51.121094 L 70.365234 24.197266 A 16.001599 16.001599 0 0 0 56.757812 0 z "
       transform="translate(264.97645,376.3928)"
       id="path4171" />
    <g
       transform="matrix(0.8660254,0.5,-0.5,0.8660254,-14.13733,-107.49851)"
       id="g4204">
      <path
         d="m 392.9984,442.84149 a 63.998402,63.770691 0 0 1 -31.9992,55.22704 63.998402,63.770691 0 0 1 -63.9984,0 63.998402,63.770691 0 0 1 -31.9992,-55.22704"
         sodipodi:open="true"
         sodipodi:end="3.1415927"
         sodipodi:start="0"
         sodipodi:ry="63.770691"
         sodipodi:rx="63.998402"
         sodipodi:cy="442.84149"
         sodipodi:cx="329"
         sodipodi:type="arc"
         id="path4206"
         style="fill:none;fill-opacity:1;stroke:#333333;stroke-width:31.99999809;stroke-linecap:round;stroke-miterlimit:4;stroke-dasharray:none;stroke-dashoffset:0;stroke-opacity:0.70196078" />
      <path
         style="fill:none;fill-rule:evenodd;stroke:#333333;stroke-width:32;stroke-linecap:round;stroke-linejoin:miter;stroke-miterlimit:4;stroke-dasharray:none;stroke-opacity:0.70196078"
         d="m 329,411.75244 0,191.63524"
         id="path4208"
         inkscape:connector-curvature="0"
         sodipodi:nodetypes="cc" />
      <path
         style="fill:none;fill-rule:evenodd;stroke:#333333;stroke-width:31.99999809;stroke-linecap:round;stroke-linejoin:miter;stroke-miterlimit:4;stroke-dasharray:none;stroke-opacity:0.70196078"
         d="m 265.0016,442.84149 0,-31.08905"
         id="path4210"
         inkscape:connector-curvature="0"
         sodipodi:nodetypes="cc" />
      <path
         sodipodi:nodetypes="cc"
         inkscape:connector-curvature="0"
         id="path4212"
         d="m 392.9984,442.84149 0,-31.08905"
         style="fill:none;fill-rule:evenodd;stroke:#333333;stroke-width:31.99999809;stroke-linecap:round;stroke-linejoin:miter;stroke-miterlimit:4;stroke-dasharray:none;stroke-opacity:0.70196078" />
    </g>
  </g>
</svg>
